{"title":"Damages.S04.Season.4.COMPLETE.DVDRip.XviD-SAiNTS","uid":10352413,"size":4293647514,"categoryP":"video","categoryS":"tv_shows","magnet":"?xt=urn:btih:e4c3aad53a4a4b21949f607e7830ed3de14d0c45&amp;dn=Damages.S04.Season.4.COMPLETE.DVDRip.XviD-SAiNTS&amp;tr=udp%3A%2F%2Ftracker.openbittorrent.com%3A80&amp;tr=udp%3A%2F%2Fopen.demonii.com%3A1337&amp;tr=udp%3A%2F%2Ftracker.coppersurfer.tk%3A6969&amp;tr=udp%3A%2F%2Fexodus.desync.com%3A6969","seeders":8,"leechers":2,"uploader":"FiNCH","files":-1,"time":1402687432,"description":"*******************************************************************************\n               Damages.S04.Season.4.COMPLETE.DVDRip.XviD-SAiNTS\n*******************************************************************************\n\n-------------------------------------------------------------------------------\nGeneral Information\n-------------------------------------------------------------------------------\n\nFormat : AVI\nFormat/Info : Audio Video Interleave\nFile size : 550 MiB (x3) 350 MiB (x7)\nDuration : 54mn 59s (x10)\nOverall bit rate mode : Variable\nOverall bit rate : 1 397 Kbps\nWriting application : MEncoder dev-SVN-r26940\nWriting library : MPlayer\n\nVideo\nID : 0\nFormat : MPEG-4 Visual\nFormat profile : Advanced Simple@L5\nFormat settings, BVOP : 1\nFormat settings, QPel : No\nFormat settings, GMC : No warppoints\nFormat settings, Matrix : Default (H.263)\nMuxing mode : Packed bitstream\nCodec ID : XVID\nCodec ID/Hint : XviD\nDuration : 54mn 59s\nBit rate : 1 245 Kbps\nWidth : 624 pixels\nHeight : 352 pixels\nDisplay aspect ratio : 16:9\nFrame rate : 25.000 fps\nColor space : YUV\nChroma subsampling : 4:2:0\nBit depth : 8 bits\nScan type : Progressive\nCompression mode : Lossy\nBits/(Pixel*Frame) : 0.227\nStream size : 490 MiB (89%)\nWriting library : XviD 1.2.1 (UTC 2008-12-04)\n\nAudio\nID : 1\nFormat : MPEG Audio\nFormat version : Version 1\nFormat profile : Layer 3\nMode : Joint stereo\nMode extension : MS Stereo\nCodec ID : 55\nCodec ID/Hint : MP3\nDuration : 54mn 59s\nBit rate mode : Variable\nBit rate : 144 Kbps\nChannel(s) : 2 channels\nSampling rate : 48.0 KHz\nCompression mode : Lossy\nStream size : 55.0 MiB (10%)\nAlignment : Aligned on interleaves\nInterleave, duration : 24 ms (0.60 video frame)\nInterleave, preload duration : 241 ms\nWriting library : LAME3.98r\nEncoding settings : -m j -V 4 -q 3 -lowpass 17.5 --abr 144\n\n-------------------------------------------------------------------------------\n-------------------------------------------------------------------------------\n\nSCREENS\n  &lt;a href=&quot;\nhttp://postimg.org/image/qhef01qt3/&quot; rel=&quot;nofollow&quot; target=&quot;_NEW&quot;&gt;\nhttp://postimg.org/image/qhef01qt3/&lt;/a&gt; &lt;a href=&quot;\nhttp://postimg.org/image/a7o8x5g53/&quot; rel=&quot;nofollow&quot; target=&quot;_NEW&quot;&gt;\nhttp://postimg.org/image/a7o8x5g53/&lt;/a&gt; &lt;a href=&quot;\nhttp://postimg.org/image/wxndq4zcn/&quot; rel=&quot;nofollow&quot; target=&quot;_NEW&quot;&gt;\nhttp://postimg.org/image/wxndq4zcn/&lt;/a&gt; &lt;a href=&quot;\nhttp://postimg.org/image/aacpxq96f/&quot; rel=&quot;nofollow&quot; target=&quot;_NEW&quot;&gt;\nhttp://postimg.org/image/aacpxq96f/&lt;/a&gt; &lt;a href=&quot;\nhttp://postimg.org/image/62hxoz7qv/&quot; rel=&quot;nofollow&quot; target=&quot;_NEW&quot;&gt;\nhttp://postimg.org/image/62hxoz7qv/&lt;/a&gt;\n\t\t","torrent":{"xt":"urn:btih:e4c3aad53a4a4b21949f607e7830ed3de14d0c45","amp;dn":"Damages.S04.Season.4.COMPLETE.DVDRip.XviD-SAiNTS","amp;tr":["udp%3A%2F%2Ftracker.openbittorrent.com%3A80","udp%3A%2F%2Fopen.demonii.com%3A1337","udp%3A%2F%2Ftracker.coppersurfer.tk%3A6969","udp%3A%2F%2Fexodus.desync.com%3A6969"],"infoHash":"e4c3aad53a4a4b21949f607e7830ed3de14d0c45","infoHashBuffer":{"type":"Buffer","data":[228,195,170,213,58,74,75,33,148,159,96,126,120,48,237,61,225,77,12,69]},"announce":[],"urlList":[]}}